<?xml version="1.0" encoding="UTF-8"?>
<svg xmlns="http://www.w3.org/2000/svg" xmlns:xlink="http://www.w3.org/1999/xlink" width="2100" height="2100" viewBox="0 0 2100 2100">
<rect x="-210" y="-210" width="2520" height="2520" fill="rgb(100%, 100%, 100%)" fill-opacity="1"/>
<path fill-rule="nonzero" fill="#557C56" fill-opacity="1" d="M 987.367188 1713.226562 L 924.019531 1677.089844 L 924.019531 1430.097656 L 939.152344 1427.542969 C 947.476562 1426.136719 956.066406 1426.085938 958.242188 1427.425781 C 960.832031 1429.027344 962.199219 1469.304688 962.199219 1543.890625 L 962.199219 1657.910156 L 1006.039062 1683.367188 C 1030.148438 1697.367188 1051.269531 1708.242188 1052.96875 1707.527344 C 1054.671875 1706.816406 1075.320312 1695.273438 1098.859375 1681.878906 L 1141.648438 1657.523438 L 1141.648438 1543.472656 C 1141.648438 1449.246094 1142.558594 1429.421875 1146.898438 1429.421875 C 1149.789062 1429.421875 1157.539062 1428.34375 1164.128906 1427.023438 L 1176.121094 1424.628906 L 1175.109375 1551.859375 L 1174.109375 1679.09375 L 1139.738281 1698.625 C 1120.839844 1709.371094 1093.078125 1725.179688 1078.050781 1733.757812 L 1050.71875 1749.359375 Z M 756.875 1547.277344 L 744.359375 1539.269531 L 753.535156 1523.484375 C 817.421875 1413.539062 939.292969 1198.933594 939.292969 1196.371094 C 939.292969 1194.539062 927.238281 1186 912.503906 1177.394531 L 885.710938 1161.75 L 818.003906 1200.859375 C 659.484375 1292.425781 633.371094 1307.25 630.574219 1307.25 C 627.589844 1307.25 613.480469 1280.378906 615.546875 1278.628906 C 616.597656 1277.734375 778.546875 1184.070312 839.019531 1149.378906 L 866.65625 1133.523438 L 866.742188 1066.710938 L 469.660156 1066.710938 L 469.660156 1032.339844 L 870.558594 1032.339844 L 870.558594 965.230469 L 850.515625 953.621094 C 839.488281 947.238281 781.941406 914.019531 722.628906 879.800781 L 614.792969 817.578125 L 623.003906 802.96875 C 630.265625 790.050781 632.140625 788.839844 639.207031 792.53125 C 643.605469 794.820312 697.070312 825.53125 758.019531 860.761719 C 818.96875 895.988281 873.390625 926.890625 878.953125 929.429688 C 888.039062 933.570312 891.714844 932.488281 915.128906 918.859375 C 929.464844 910.511719 940.734375 901.621094 940.175781 899.089844 C 939.613281 896.570312 896.023438 820.28125 843.304688 729.570312 C 790.585938 638.851562 746.792969 563.488281 745.984375 562.089844 C 743.566406 557.921875 771.570312 542.359375 774.9375 546.011719 C 777.878906 549.191406 855.328125 681.53125 934.902344 819.328125 C 955.160156 854.410156 972.800781 883.191406 974.097656 883.28125 C 975.394531 883.371094 988.710938 876.339844 1003.691406 867.671875 L 1030.921875 851.910156 L 1030.921875 558.898438 L 1065.28125 558.898438 L 1065.28125 852.320312 L 1093.648438 869.550781 C 1114.378906 882.128906 1122.949219 885.550781 1125.46875 882.238281 C 1127.371094 879.75 1172.441406 802.640625 1225.640625 710.898438 L 1322.351562 544.078125 L 1332.21875 549.441406 C 1337.648438 552.390625 1344.28125 556.28125 1346.941406 558.078125 C 1352.378906 561.75 1359.71875 548.339844 1233.691406 764.738281 C 1172.960938 869 1153.960938 904.570312 1157.679688 907 C 1160.410156 908.78125 1173.160156 916.199219 1186.019531 923.480469 L 1209.398438 936.730469 L 1332.121094 866.03125 C 1399.609375 827.160156 1457.160156 794.449219 1460 793.359375 C 1463.121094 792.160156 1468.390625 796.839844 1473.269531 805.109375 L 1481.378906 818.839844 L 1467.25 827.269531 C 1459.488281 831.921875 1402.378906 864.988281 1340.339844 900.78125 L 1227.550781 965.851562 L 1226.441406 999.101562 L 1225.339844 1032.339844 L 1622.71875 1032.339844 L 1622.71875 1066.710938 L 1225.648438 1066.710938 L 1225.648438 1133.863281 L 1353.46875 1207.53125 L 1481.300781 1281.203125 L 1472.890625 1295.8125 C 1465.539062 1308.574219 1463.5 1309.902344 1456.75 1306.316406 C 1452.488281 1304.058594 1404.339844 1276.378906 1349.738281 1244.804688 C 1295.140625 1213.230469 1241.160156 1182.292969 1229.789062 1176.058594 L 1209.109375 1164.722656 L 1184.699219 1177.757812 C 1171.269531 1184.929688 1158.789062 1192.554688 1156.949219 1194.699219 C 1154.910156 1197.085938 1167.730469 1223.074219 1189.921875 1261.515625 C 1209.878906 1296.117188 1253.578125 1371.871094 1287.019531 1429.851562 C 1320.460938 1487.835938 1347.828125 1536.839844 1347.828125 1538.753906 C 1347.828125 1542.546875 1321.878906 1557.636719 1319.75 1555.082031 C 1319.03125 1554.21875 1275.089844 1478.777344 1222.089844 1387.429688 C 1169.101562 1296.082031 1124.339844 1219.878906 1122.621094 1218.089844 C 1120.898438 1216.300781 1107.300781 1221.960938 1092.390625 1230.667969 L 1065.289062 1246.496094 L 1065.289062 1540.152344 L 1030.929688 1540.152344 L 1030.929688 1247.144531 L 1003.691406 1231.378906 C 988.714844 1222.707031 975.402344 1215.664062 974.105469 1215.722656 C 972.808594 1215.78125 950.269531 1252.953125 924.019531 1298.324219 C 812.070312 1491.820312 775.699219 1553.316406 772.636719 1554.273438 C 770.851562 1554.832031 763.757812 1551.683594 756.875 1547.277344 Z M 1119 1174.570312 L 1191.039062 1133.523438 L 1191.039062 965.53125 L 1118.988281 924.480469 L 1046.941406 883.429688 L 974.984375 924.96875 L 903.019531 966.511719 L 903.019531 1132.5 L 973.65625 1173.648438 C 1012.5 1196.28125 1044.890625 1214.980469 1045.628906 1215.207031 C 1046.359375 1215.429688 1079.378906 1197.144531 1119 1174.570312 Z M 504.679688 1436.109375 L 442.855469 1400.792969 L 444.847656 1255.917969 L 551.753906 1193.910156 L 658.660156 1131.898438 L 665.28125 1140.347656 C 672.097656 1149.050781 677.539062 1161.890625 675.238281 1163.839844 C 674.519531 1164.445312 632.699219 1188.632812 582.300781 1217.59375 C 531.902344 1246.550781 487.617188 1272.125 483.890625 1274.429688 C 477.863281 1278.152344 477.234375 1284.214844 478.164062 1329.574219 L 479.210938 1380.539062 L 524.035156 1406.738281 L 568.859375 1432.941406 L 667.96875 1375.820312 C 722.476562 1344.40625 767.765625 1318.703125 768.605469 1318.703125 C 771.007812 1318.703125 784.128906 1349.160156 782.390625 1350.707031 C 778.386719 1354.273438 571.410156 1471.425781 569.113281 1471.425781 C 567.675781 1471.425781 538.679688 1455.535156 504.675781 1436.109375 Z M 1433.660156 1413.664062 C 1303.308594 1338.375 1316.019531 1347.503906 1322.941406 1334.101562 C 1326.101562 1328 1330.460938 1321.902344 1332.640625 1320.554688 C 1334.820312 1319.210938 1380.109375 1343.15625 1433.289062 1373.765625 C 1486.460938 1404.378906 1531.308594 1429.425781 1532.949219 1429.425781 C 1534.601562 1429.425781 1555.46875 1418.089844 1579.339844 1404.230469 L 1622.730469 1379.03125 L 1622.730469 1273.558594 L 1528.230469 1219.171875 C 1476.261719 1189.261719 1431.628906 1163.15625 1429.039062 1161.164062 C 1424.191406 1157.417969 1425.929688 1152.121094 1436.769531 1137.613281 C 1442.03125 1130.566406 1446.878906 1132.859375 1549.660156 1191.066406 L 1657.058594 1251.886719 L 1657.070312 1324.996094 L 1657.089844 1398.101562 L 1606.5 1427.601562 C 1578.671875 1443.824219 1550.71875 1460.21875 1544.378906 1464.027344 L 1532.851562 1470.960938 L 1433.648438 1413.664062 Z M 550.59375 909.089844 L 443.039062 847.171875 L 442.953125 700.949219 L 493.542969 671.449219 C 521.367188 655.230469 549.414062 638.78125 555.871094 634.890625 L 567.613281 627.828125 L 620.78125 658.679688 C 756.761719 737.570312 773.511719 747.378906 777.878906 750.769531 C 781.460938 753.539062 780.769531 757.839844 774.867188 769.410156 C 770.648438 777.679688 765.976562 783.78125 764.480469 782.980469 C 762.984375 782.171875 718.925781 756.910156 666.574219 726.839844 C 614.21875 696.769531 569.496094 672.171875 567.195312 672.171875 C 564.894531 672.171875 543.730469 682.921875 520.164062 696.050781 L 477.316406 719.929688 L 477.316406 825.5 L 571.8125 879.828125 C 623.785156 909.710938 668.359375 936.058594 670.859375 938.390625 C 674.347656 941.628906 673.398438 945.929688 666.785156 956.808594 L 658.160156 971.011719 Z M 1431.460938 953.488281 C 1423.300781 940.28125 1423.21875 939.410156 1429.761719 934.621094 C 1433.539062 931.871094 1478.539062 905.140625 1529.78125 875.230469 L 1622.941406 820.839844 L 1621.878906 769.679688 L 1620.820312 718.519531 L 1575.859375 692.230469 L 1530.898438 665.949219 L 1431.949219 723.148438 C 1377.53125 754.609375 1332.429688 780.351562 1331.738281 780.351562 C 1327.558594 780.351562 1316.5 752.890625 1319.488281 749.921875 C 1330.308594 739.191406 1529.691406 627.71875 1534.738281 629.578125 C 1537.988281 630.769531 1566.859375 646.710938 1598.890625 665 L 1657.140625 698.261719 L 1656.160156 770.769531 L 1655.179688 843.269531 L 1557.820312 899.75 C 1504.269531 930.808594 1455.859375 958.730469 1450.238281 961.78125 C 1440.339844 967.171875 1439.761719 966.910156 1431.460938 953.488281 Z M 924.972656 670.910156 C 921.292969 669.429688 920.203125 640.738281 920.203125 545.589844 L 920.203125 422.191406 L 982.246094 386.871094 C 1016.371094 367.441406 1045.148438 351.148438 1046.199219 350.648438 C 1047.25 350.160156 1075.601562 365.539062 1109.199219 384.820312 L 1170.289062 419.890625 L 1171.289062 544.488281 C 1172.269531 664.648438 1172.039062 669.160156 1164.941406 671.421875 C 1160.890625 672.699219 1153.128906 672.640625 1147.699219 671.269531 L 1137.828125 668.789062 L 1137.828125 441.429688 L 1092.96875 415.738281 L 1048.109375 390.058594 L 1029.019531 400.488281 C 1018.519531 406.21875 998.328125 417.660156 984.15625 425.890625 L 958.382812 440.871094 L 958.382812 668.671875 L 946.449219 671.058594 C 933.238281 673.691406 931.851562 673.691406 924.972656 670.910156 Z M 924.972656 670.910156 "/>
</svg>
